<?xml version="1.0" encoding="utf-8"?>
<!-- Generator: Adobe Illustrator 26.1.0, SVG Export Plug-In . SVG Version: 6.00 Build 0)  -->
<svg version="1.1" id="Layer_1" xmlns="http://www.w3.org/2000/svg" xmlns:xlink="http://www.w3.org/1999/xlink" x="0px" y="0px"
	 viewBox="0 0 595.3 841.9" style="enable-background:new 0 0 595.3 841.9;" xml:space="preserve">
<style type="text/css">
	.st0{fill:#FFFFFF;stroke:#FFFFFF;stroke-miterlimit:10;}
	.st1{fill:none;}
	.st2{fill:#FFFFFF;}
	.st3{font-family:'Arimo-SemiBold';}
	.st4{font-size:31px;}
</style>
<g>
	<rect x="51.1" y="71" class="st0" width="487.1" height="15.3"/>
	<rect x="198.2" y="99.3" class="st0" width="20.7" height="232.1"/>
	<rect x="74.6" y="99.3" class="st0" width="20.7" height="232.1"/>
	<rect x="493.1" y="99.3" class="st0" width="20.7" height="232.1"/>
	<rect x="369.5" y="99.3" class="st0" width="20.7" height="232.1"/>
	<rect x="64.9" y="35.8" class="st0" width="459.6" height="24.5"/>
	<rect x="51.1" y="337.8" class="st0" width="487.1" height="30.6"/>
	<rect x="113.2" y="249.4" class="st0" width="26.6" height="79.9"/>
	<rect x="155.7" y="249.4" class="st0" width="26.6" height="79.9"/>
	<rect x="407.1" y="249.4" class="st0" width="26.6" height="79.9"/>
	<rect x="449.6" y="249.4" class="st0" width="26.6" height="79.9"/>
	<rect x="25.3" y="372.8" class="st0" width="550" height="44.4"/>
	<rect x="100.9" y="224.7" class="st0" width="90.9" height="15.3"/>
	<rect x="396.2" y="224.7" class="st0" width="90.9" height="15.3"/>
	<rect x="20" y="432.9" class="st1" width="554.6" height="32.8"/>
	<text transform="matrix(1 0 0 1 27.418 455.3293)" class="st2 st3 st4">BJELOVARSKI DRUŠTVENI DOMOVI</text>
</g>
</svg>
