<?xml version="1.0" encoding="UTF-8"?><svg id="a" xmlns="http://www.w3.org/2000/svg" viewBox="0 0 554.55 453.45"><defs><style>.b{letter-spacing:-.07em;}.c{font-family:Arimo-Regular, Arimo;font-size:32px;}.c,.d{fill:#fff;}.d{stroke:#fff;stroke-miterlimit:10;}</style></defs><rect class="d" x="28.09" y="35.65" width="487.15" height="15.32"/><rect class="d" x="175.15" y="63.99" width="20.68" height="232.09"/><rect class="d" x="51.53" y="63.99" width="20.68" height="232.09"/><rect class="d" x="470.04" y="63.99" width="20.68" height="232.09"/><rect class="d" x="346.43" y="63.99" width="20.68" height="232.09"/><rect class="d" x="41.87" y=".5" width="459.57" height="24.51"/><rect class="d" x="28.09" y="310.46" width="487.15" height="30.64"/><rect class="d" x="90.13" y="214.12" width="26.55" height="79.91"/><rect class="d" x="132.64" y="214.12" width="26.55" height="79.91"/><rect class="d" x="384.04" y="214.12" width="26.55" height="79.91"/><rect class="d" x="426.55" y="214.12" width="26.55" height="79.91"/><rect class="d" x="2.3" y="337.44" width="549.96" height="44.43"/><rect class="d" x="77.87" y="189.35" width="90.89" height="15.32"/><rect class="d" x="373.13" y="189.35" width="90.89" height="15.32"/><text class="c" transform="translate(2.85 420.73)"><tspan x="0" y="0">BJELO</tspan><tspan class="b" x="101.38" y="0">V</tspan><tspan x="120.34" y="0">ARSKI DRUŠTVENI DOMOVI</tspan></text></svg>